# xmcd
#
# Track frame offsets: 
#        150
#        30196
#        47323
#        63489
#        81330
#        104618
#        131191
#        147103
#        163065
#        177135
#        193430
#        209233
#        228498
#        238983
#        255256
#        268284
#        279984
#        302570
#        312479
#
# Disc length: 4369 seconds
#
# Revision: 0
# Processed by: cddbd v1.5.2PL0 Copyright (c) Steve Scherf et al.
# Submitted via: ExactAudioCopy v1.1
#
DISCID=1e110f13
DTITLE=Various Artist - 1000 Klassiekers Radio 2 Vol. 01 - CD 2
DYEAR=2009
DGENRE=Pop
TTITLE0=Simple Minds - Belfast Child
TTITLE1=Leonard Cohen - Suzanne
TTITLE2=The Cats - One Way Wind
TTITLE3=Bobby Goldsboro - Honey
TTITLE4=Rob De Nijs - Het Werd Zomer (Live)
TTITLE5=Falco - Jeanny Part I
TTITLE6=Natalia - I've Only Begun To Fight
TTITLE7=Anita Meyer - Why Tell Me, Why
TTITLE8=Bobby Solo - Una Lacrima Sul Viso
TTITLE9=The Righteous Brothers - Unchained Melody
TTITLE10=Erik Van Neygen and Sanne - Veel Te Mooi
TTITLE11=Boney M - Rivers Of Babylon
TTITLE12=Anny Heuts - Zwarte Lola
TTITLE13=Marianne Rosenberg - Ich Bin Wie Du
TTITLE14=Bart Kaëll - De Marie-Louise
TTITLE15=The Platters - Only You (And You Alone)
TTITLE16=The Kiki Dee Band - I've Got The Music In Me
TTITLE17=Bill Haley And His Comets - Rock Around The Clock
TTITLE18=Barry White - You're The First, The Last, My Everything
EXTD=
EXTT0=
EXTT1=
EXTT2=
EXTT3=
EXTT4=
EXTT5=
EXTT6=
EXTT7=
EXTT8=
EXTT9=
EXTT10=
EXTT11=
EXTT12=
EXTT13=
EXTT14=
EXTT15=
EXTT16=
EXTT17=
EXTT18=
PLAYORDER=
